<svg xmlns="http://www.w3.org/2000/svg" viewBox="0 0 520 620" fill="none">
<defs>
<linearGradient id="g" x1="0" y1="0" x2="1" y2="1">
<stop offset="0" stop-color="#c4b5fd"/><stop offset="0.6" stop-color="#8b5cf6"/><stop offset="1" stop-color="#7c3aed"/>
</linearGradient>
</defs>
<g stroke="url(#g)" stroke-width="0.8">
<line x1="70" y1="103.3" x2="180" y2="68.9" stroke-opacity="0.112"/>
<line x1="70" y1="103.3" x2="180" y2="137.8" stroke-opacity="0.084"/>
<line x1="70" y1="103.3" x2="180" y2="206.7" stroke-opacity="0.164"/>
<line x1="70" y1="103.3" x2="180" y2="275.6" stroke-opacity="0.072"/>
<line x1="70" y1="103.3" x2="180" y2="344.4" stroke-opacity="0.146"/>
<line x1="70" y1="103.3" x2="180" y2="413.3" stroke-opacity="0.119"/>
<line x1="70" y1="103.3" x2="180" y2="482.2" stroke-opacity="0.069"/>
<line x1="70" y1="103.3" x2="180" y2="551.1" stroke-opacity="0.141"/>
<line x1="70" y1="206.7" x2="180" y2="68.9" stroke-opacity="0.066"/>
<line x1="70" y1="206.7" x2="180" y2="137.8" stroke-opacity="0.129"/>
<line x1="70" y1="206.7" x2="180" y2="206.7" stroke-opacity="0.071"/>
<line x1="70" y1="206.7" x2="180" y2="275.6" stroke-opacity="0.075"/>
<line x1="70" y1="206.7" x2="180" y2="344.4" stroke-opacity="0.128"/>
<line x1="70" y1="206.7" x2="180" y2="413.3" stroke-opacity="0.192"/>
<line x1="70" y1="206.7" x2="180" y2="482.2" stroke-opacity="0.08"/>
<line x1="70" y1="206.7" x2="180" y2="551.1" stroke-opacity="0.096"/>
<line x1="70" y1="310.0" x2="180" y2="68.9" stroke-opacity="0.16"/>
<line x1="70" y1="310.0" x2="180" y2="137.8" stroke-opacity="0.212"/>
<line x1="70" y1="310.0" x2="180" y2="206.7" stroke-opacity="0.152"/>
<line x1="70" y1="310.0" x2="180" y2="275.6" stroke-opacity="0.123"/>
<line x1="70" y1="310.0" x2="180" y2="344.4" stroke-opacity="0.216"/>
<line x1="70" y1="310.0" x2="180" y2="413.3" stroke-opacity="0.067"/>
<line x1="70" y1="310.0" x2="180" y2="482.2" stroke-opacity="0.197"/>
<line x1="70" y1="310.0" x2="180" y2="551.1" stroke-opacity="0.106"/>
<line x1="70" y1="413.3" x2="180" y2="68.9" stroke-opacity="0.083"/>
<line x1="70" y1="413.3" x2="180" y2="137.8" stroke-opacity="0.079"/>
<line x1="70" y1="413.3" x2="180" y2="206.7" stroke-opacity="0.109"/>
<line x1="70" y1="413.3" x2="180" y2="275.6" stroke-opacity="0.191"/>
<line x1="70" y1="413.3" x2="180" y2="344.4" stroke-opacity="0.089"/>
<line x1="70" y1="413.3" x2="180" y2="413.3" stroke-opacity="0.153"/>
<line x1="70" y1="413.3" x2="180" y2="482.2" stroke-opacity="0.162"/>
<line x1="70" y1="413.3" x2="180" y2="551.1" stroke-opacity="0.12"/>
<line x1="70" y1="516.7" x2="180" y2="68.9" stroke-opacity="0.148"/>
<line x1="70" y1="516.7" x2="180" y2="137.8" stroke-opacity="0.07"/>
<line x1="70" y1="516.7" x2="180" y2="206.7" stroke-opacity="0.07"/>
<line x1="70" y1="516.7" x2="180" y2="275.6" stroke-opacity="0.093"/>
<line x1="70" y1="516.7" x2="180" y2="344.4" stroke-opacity="0.169"/>
<line x1="70" y1="516.7" x2="180" y2="413.3" stroke-opacity="0.128"/>
<line x1="70" y1="516.7" x2="180" y2="482.2" stroke-opacity="0.11"/>
<line x1="70" y1="516.7" x2="180" y2="551.1" stroke-opacity="0.154"/>
<line x1="180" y1="68.9" x2="290" y2="68.9" stroke-opacity="0.133"/>
<line x1="180" y1="68.9" x2="290" y2="137.8" stroke-opacity="0.108"/>
<line x1="180" y1="68.9" x2="290" y2="206.7" stroke-opacity="0.187"/>
<line x1="180" y1="68.9" x2="290" y2="275.6" stroke-opacity="0.172"/>
<line x1="180" y1="68.9" x2="290" y2="344.4" stroke-opacity="0.099"/>
<line x1="180" y1="68.9" x2="290" y2="413.3" stroke-opacity="0.152"/>
<line x1="180" y1="68.9" x2="290" y2="482.2" stroke-opacity="0.144"/>
<line x1="180" y1="68.9" x2="290" y2="551.1" stroke-opacity="0.2"/>
<line x1="180" y1="137.8" x2="290" y2="68.9" stroke-opacity="0.177"/>
<line x1="180" y1="137.8" x2="290" y2="137.8" stroke-opacity="0.106"/>
<line x1="180" y1="137.8" x2="290" y2="206.7" stroke-opacity="0.217"/>
<line x1="180" y1="137.8" x2="290" y2="275.6" stroke-opacity="0.079"/>
<line x1="180" y1="137.8" x2="290" y2="344.4" stroke-opacity="0.127"/>
<line x1="180" y1="137.8" x2="290" y2="413.3" stroke-opacity="0.181"/>
<line x1="180" y1="137.8" x2="290" y2="482.2" stroke-opacity="0.084"/>
<line x1="180" y1="137.8" x2="290" y2="551.1" stroke-opacity="0.138"/>
<line x1="180" y1="206.7" x2="290" y2="68.9" stroke-opacity="0.066"/>
<line x1="180" y1="206.7" x2="290" y2="137.8" stroke-opacity="0.167"/>
<line x1="180" y1="206.7" x2="290" y2="206.7" stroke-opacity="0.182"/>
<line x1="180" y1="206.7" x2="290" y2="275.6" stroke-opacity="0.152"/>
<line x1="180" y1="206.7" x2="290" y2="344.4" stroke-opacity="0.2"/>
<line x1="180" y1="206.7" x2="290" y2="413.3" stroke-opacity="0.11"/>
<line x1="180" y1="206.7" x2="290" y2="482.2" stroke-opacity="0.171"/>
<line x1="180" y1="206.7" x2="290" y2="551.1" stroke-opacity="0.155"/>
<line x1="180" y1="275.6" x2="290" y2="68.9" stroke-opacity="0.153"/>
<line x1="180" y1="275.6" x2="290" y2="137.8" stroke-opacity="0.133"/>
<line x1="180" y1="275.6" x2="290" y2="206.7" stroke-opacity="0.194"/>
<line x1="180" y1="275.6" x2="290" y2="275.6" stroke-opacity="0.211"/>
<line x1="180" y1="275.6" x2="290" y2="344.4" stroke-opacity="0.136"/>
<line x1="180" y1="275.6" x2="290" y2="413.3" stroke-opacity="0.166"/>
<line x1="180" y1="275.6" x2="290" y2="482.2" stroke-opacity="0.07"/>
<line x1="180" y1="275.6" x2="290" y2="551.1" stroke-opacity="0.172"/>
<line x1="180" y1="344.4" x2="290" y2="68.9" stroke-opacity="0.164"/>
<line x1="180" y1="344.4" x2="290" y2="137.8" stroke-opacity="0.219"/>
<line x1="180" y1="344.4" x2="290" y2="206.7" stroke-opacity="0.192"/>
<line x1="180" y1="344.4" x2="290" y2="275.6" stroke-opacity="0.106"/>
<line x1="180" y1="344.4" x2="290" y2="344.4" stroke-opacity="0.122"/>
<line x1="180" y1="344.4" x2="290" y2="413.3" stroke-opacity="0.167"/>
<line x1="180" y1="344.4" x2="290" y2="482.2" stroke-opacity="0.064"/>
<line x1="180" y1="344.4" x2="290" y2="551.1" stroke-opacity="0.134"/>
<line x1="180" y1="413.3" x2="290" y2="68.9" stroke-opacity="0.087"/>
<line x1="180" y1="413.3" x2="290" y2="137.8" stroke-opacity="0.079"/>
<line x1="180" y1="413.3" x2="290" y2="206.7" stroke-opacity="0.069"/>
<line x1="180" y1="413.3" x2="290" y2="275.6" stroke-opacity="0.183"/>
<line x1="180" y1="413.3" x2="290" y2="344.4" stroke-opacity="0.081"/>
<line x1="180" y1="413.3" x2="290" y2="413.3" stroke-opacity="0.1"/>
<line x1="180" y1="413.3" x2="290" y2="482.2" stroke-opacity="0.123"/>
<line x1="180" y1="413.3" x2="290" y2="551.1" stroke-opacity="0.199"/>
<line x1="180" y1="482.2" x2="290" y2="68.9" stroke-opacity="0.073"/>
<line x1="180" y1="482.2" x2="290" y2="137.8" stroke-opacity="0.132"/>
<line x1="180" y1="482.2" x2="290" y2="206.7" stroke-opacity="0.148"/>
<line x1="180" y1="482.2" x2="290" y2="275.6" stroke-opacity="0.201"/>
<line x1="180" y1="482.2" x2="290" y2="344.4" stroke-opacity="0.191"/>
<line x1="180" y1="482.2" x2="290" y2="413.3" stroke-opacity="0.198"/>
<line x1="180" y1="482.2" x2="290" y2="482.2" stroke-opacity="0.105"/>
<line x1="180" y1="482.2" x2="290" y2="551.1" stroke-opacity="0.126"/>
<line x1="180" y1="551.1" x2="290" y2="68.9" stroke-opacity="0.117"/>
<line x1="180" y1="551.1" x2="290" y2="137.8" stroke-opacity="0.201"/>
<line x1="180" y1="551.1" x2="290" y2="206.7" stroke-opacity="0.213"/>
<line x1="180" y1="551.1" x2="290" y2="275.6" stroke-opacity="0.084"/>
<line x1="180" y1="551.1" x2="290" y2="344.4" stroke-opacity="0.088"/>
<line x1="180" y1="551.1" x2="290" y2="413.3" stroke-opacity="0.097"/>
<line x1="180" y1="551.1" x2="290" y2="482.2" stroke-opacity="0.097"/>
<line x1="180" y1="551.1" x2="290" y2="551.1" stroke-opacity="0.138"/>
<line x1="290" y1="68.9" x2="400" y2="88.6" stroke-opacity="0.154"/>
<line x1="290" y1="68.9" x2="400" y2="177.1" stroke-opacity="0.102"/>
<line x1="290" y1="68.9" x2="400" y2="265.7" stroke-opacity="0.061"/>
<line x1="290" y1="68.9" x2="400" y2="354.3" stroke-opacity="0.127"/>
<line x1="290" y1="68.9" x2="400" y2="442.9" stroke-opacity="0.119"/>
<line x1="290" y1="68.9" x2="400" y2="531.4" stroke-opacity="0.151"/>
<line x1="290" y1="137.8" x2="400" y2="88.6" stroke-opacity="0.212"/>
<line x1="290" y1="137.8" x2="400" y2="177.1" stroke-opacity="0.17"/>
<line x1="290" y1="137.8" x2="400" y2="265.7" stroke-opacity="0.142"/>
<line x1="290" y1="137.8" x2="400" y2="354.3" stroke-opacity="0.159"/>
<line x1="290" y1="137.8" x2="400" y2="442.9" stroke-opacity="0.168"/>
<line x1="290" y1="137.8" x2="400" y2="531.4" stroke-opacity="0.069"/>
<line x1="290" y1="206.7" x2="400" y2="88.6" stroke-opacity="0.204"/>
<line x1="290" y1="206.7" x2="400" y2="177.1" stroke-opacity="0.185"/>
<line x1="290" y1="206.7" x2="400" y2="265.7" stroke-opacity="0.2"/>
<line x1="290" y1="206.7" x2="400" y2="354.3" stroke-opacity="0.188"/>
<line x1="290" y1="206.7" x2="400" y2="442.9" stroke-opacity="0.123"/>
<line x1="290" y1="206.7" x2="400" y2="531.4" stroke-opacity="0.124"/>
<line x1="290" y1="275.6" x2="400" y2="88.6" stroke-opacity="0.077"/>
<line x1="290" y1="275.6" x2="400" y2="177.1" stroke-opacity="0.161"/>
<line x1="290" y1="275.6" x2="400" y2="265.7" stroke-opacity="0.07"/>
<line x1="290" y1="275.6" x2="400" y2="354.3" stroke-opacity="0.071"/>
<line x1="290" y1="275.6" x2="400" y2="442.9" stroke-opacity="0.093"/>
<line x1="290" y1="275.6" x2="400" y2="531.4" stroke-opacity="0.086"/>
<line x1="290" y1="344.4" x2="400" y2="88.6" stroke-opacity="0.114"/>
<line x1="290" y1="344.4" x2="400" y2="177.1" stroke-opacity="0.068"/>
<line x1="290" y1="344.4" x2="400" y2="265.7" stroke-opacity="0.06"/>
<line x1="290" y1="344.4" x2="400" y2="354.3" stroke-opacity="0.084"/>
<line x1="290" y1="344.4" x2="400" y2="442.9" stroke-opacity="0.076"/>
<line x1="290" y1="344.4" x2="400" y2="531.4" stroke-opacity="0.118"/>
<line x1="290" y1="413.3" x2="400" y2="88.6" stroke-opacity="0.064"/>
<line x1="290" y1="413.3" x2="400" y2="177.1" stroke-opacity="0.2"/>
<line x1="290" y1="413.3" x2="400" y2="265.7" stroke-opacity="0.158"/>
<line x1="290" y1="413.3" x2="400" y2="354.3" stroke-opacity="0.084"/>
<line x1="290" y1="413.3" x2="400" y2="442.9" stroke-opacity="0.1"/>
<line x1="290" y1="413.3" x2="400" y2="531.4" stroke-opacity="0.116"/>
<line x1="290" y1="482.2" x2="400" y2="88.6" stroke-opacity="0.118"/>
<line x1="290" y1="482.2" x2="400" y2="177.1" stroke-opacity="0.08"/>
<line x1="290" y1="482.2" x2="400" y2="265.7" stroke-opacity="0.196"/>
<line x1="290" y1="482.2" x2="400" y2="354.3" stroke-opacity="0.219"/>
<line x1="290" y1="482.2" x2="400" y2="442.9" stroke-opacity="0.135"/>
<line x1="290" y1="482.2" x2="400" y2="531.4" stroke-opacity="0.137"/>
<line x1="290" y1="551.1" x2="400" y2="88.6" stroke-opacity="0.074"/>
<line x1="290" y1="551.1" x2="400" y2="177.1" stroke-opacity="0.076"/>
<line x1="290" y1="551.1" x2="400" y2="265.7" stroke-opacity="0.115"/>
<line x1="290" y1="551.1" x2="400" y2="354.3" stroke-opacity="0.102"/>
<line x1="290" y1="551.1" x2="400" y2="442.9" stroke-opacity="0.193"/>
<line x1="290" y1="551.1" x2="400" y2="531.4" stroke-opacity="0.086"/>
<line x1="400" y1="88.6" x2="470" y2="155.0" stroke-opacity="0.064"/>
<line x1="400" y1="88.6" x2="470" y2="310.0" stroke-opacity="0.212"/>
<line x1="400" y1="88.6" x2="470" y2="465.0" stroke-opacity="0.145"/>
<line x1="400" y1="177.1" x2="470" y2="155.0" stroke-opacity="0.083"/>
<line x1="400" y1="177.1" x2="470" y2="310.0" stroke-opacity="0.147"/>
<line x1="400" y1="177.1" x2="470" y2="465.0" stroke-opacity="0.064"/>
<line x1="400" y1="265.7" x2="470" y2="155.0" stroke-opacity="0.144"/>
<line x1="400" y1="265.7" x2="470" y2="310.0" stroke-opacity="0.217"/>
<line x1="400" y1="265.7" x2="470" y2="465.0" stroke-opacity="0.198"/>
<line x1="400" y1="354.3" x2="470" y2="155.0" stroke-opacity="0.171"/>
<line x1="400" y1="354.3" x2="470" y2="310.0" stroke-opacity="0.102"/>
<line x1="400" y1="354.3" x2="470" y2="465.0" stroke-opacity="0.119"/>
<line x1="400" y1="442.9" x2="470" y2="155.0" stroke-opacity="0.087"/>
<line x1="400" y1="442.9" x2="470" y2="310.0" stroke-opacity="0.184"/>
<line x1="400" y1="442.9" x2="470" y2="465.0" stroke-opacity="0.145"/>
<line x1="400" y1="531.4" x2="470" y2="155.0" stroke-opacity="0.185"/>
<line x1="400" y1="531.4" x2="470" y2="310.0" stroke-opacity="0.113"/>
<line x1="400" y1="531.4" x2="470" y2="465.0" stroke-opacity="0.096"/>
</g>
<g>
<circle cx="70" cy="103.3" r="7" fill="#0e0a1a" stroke="url(#g)" stroke-width="1.4" stroke-opacity="0.85"/>
<circle cx="70" cy="103.3" r="2.4" fill="#a78bfa" fill-opacity="0.9"/>
<circle cx="70" cy="206.7" r="7" fill="#0e0a1a" stroke="url(#g)" stroke-width="1.4" stroke-opacity="0.85"/>
<circle cx="70" cy="206.7" r="2.4" fill="#a78bfa" fill-opacity="0.9"/>
<circle cx="70" cy="310.0" r="7" fill="#0e0a1a" stroke="url(#g)" stroke-width="1.4" stroke-opacity="0.85"/>
<circle cx="70" cy="310.0" r="2.4" fill="#a78bfa" fill-opacity="0.9"/>
<circle cx="70" cy="413.3" r="7" fill="#0e0a1a" stroke="url(#g)" stroke-width="1.4" stroke-opacity="0.85"/>
<circle cx="70" cy="413.3" r="2.4" fill="#a78bfa" fill-opacity="0.9"/>
<circle cx="70" cy="516.7" r="7" fill="#0e0a1a" stroke="url(#g)" stroke-width="1.4" stroke-opacity="0.85"/>
<circle cx="70" cy="516.7" r="2.4" fill="#a78bfa" fill-opacity="0.9"/>
<circle cx="180" cy="68.9" r="7" fill="#0e0a1a" stroke="url(#g)" stroke-width="1.4" stroke-opacity="0.85"/>
<circle cx="180" cy="68.9" r="2.4" fill="#a78bfa" fill-opacity="0.9"/>
<circle cx="180" cy="137.8" r="7" fill="#0e0a1a" stroke="url(#g)" stroke-width="1.4" stroke-opacity="0.85"/>
<circle cx="180" cy="137.8" r="2.4" fill="#a78bfa" fill-opacity="0.9"/>
<circle cx="180" cy="206.7" r="7" fill="#0e0a1a" stroke="url(#g)" stroke-width="1.4" stroke-opacity="0.85"/>
<circle cx="180" cy="206.7" r="2.4" fill="#a78bfa" fill-opacity="0.9"/>
<circle cx="180" cy="275.6" r="7" fill="#0e0a1a" stroke="url(#g)" stroke-width="1.4" stroke-opacity="0.85"/>
<circle cx="180" cy="275.6" r="2.4" fill="#a78bfa" fill-opacity="0.9"/>
<circle cx="180" cy="344.4" r="7" fill="#0e0a1a" stroke="url(#g)" stroke-width="1.4" stroke-opacity="0.85"/>
<circle cx="180" cy="344.4" r="2.4" fill="#a78bfa" fill-opacity="0.9"/>
<circle cx="180" cy="413.3" r="7" fill="#0e0a1a" stroke="url(#g)" stroke-width="1.4" stroke-opacity="0.85"/>
<circle cx="180" cy="413.3" r="2.4" fill="#a78bfa" fill-opacity="0.9"/>
<circle cx="180" cy="482.2" r="7" fill="#0e0a1a" stroke="url(#g)" stroke-width="1.4" stroke-opacity="0.85"/>
<circle cx="180" cy="482.2" r="2.4" fill="#a78bfa" fill-opacity="0.9"/>
<circle cx="180" cy="551.1" r="7" fill="#0e0a1a" stroke="url(#g)" stroke-width="1.4" stroke-opacity="0.85"/>
<circle cx="180" cy="551.1" r="2.4" fill="#a78bfa" fill-opacity="0.9"/>
<circle cx="290" cy="68.9" r="7" fill="#0e0a1a" stroke="url(#g)" stroke-width="1.4" stroke-opacity="0.85"/>
<circle cx="290" cy="68.9" r="2.4" fill="#a78bfa" fill-opacity="0.9"/>
<circle cx="290" cy="137.8" r="7" fill="#0e0a1a" stroke="url(#g)" stroke-width="1.4" stroke-opacity="0.85"/>
<circle cx="290" cy="137.8" r="2.4" fill="#a78bfa" fill-opacity="0.9"/>
<circle cx="290" cy="206.7" r="7" fill="#0e0a1a" stroke="url(#g)" stroke-width="1.4" stroke-opacity="0.85"/>
<circle cx="290" cy="206.7" r="2.4" fill="#a78bfa" fill-opacity="0.9"/>
<circle cx="290" cy="275.6" r="7" fill="#0e0a1a" stroke="url(#g)" stroke-width="1.4" stroke-opacity="0.85"/>
<circle cx="290" cy="275.6" r="2.4" fill="#a78bfa" fill-opacity="0.9"/>
<circle cx="290" cy="344.4" r="7" fill="#0e0a1a" stroke="url(#g)" stroke-width="1.4" stroke-opacity="0.85"/>
<circle cx="290" cy="344.4" r="2.4" fill="#a78bfa" fill-opacity="0.9"/>
<circle cx="290" cy="413.3" r="7" fill="#0e0a1a" stroke="url(#g)" stroke-width="1.4" stroke-opacity="0.85"/>
<circle cx="290" cy="413.3" r="2.4" fill="#a78bfa" fill-opacity="0.9"/>
<circle cx="290" cy="482.2" r="7" fill="#0e0a1a" stroke="url(#g)" stroke-width="1.4" stroke-opacity="0.85"/>
<circle cx="290" cy="482.2" r="2.4" fill="#a78bfa" fill-opacity="0.9"/>
<circle cx="290" cy="551.1" r="7" fill="#0e0a1a" stroke="url(#g)" stroke-width="1.4" stroke-opacity="0.85"/>
<circle cx="290" cy="551.1" r="2.4" fill="#a78bfa" fill-opacity="0.9"/>
<circle cx="400" cy="88.6" r="7" fill="#0e0a1a" stroke="url(#g)" stroke-width="1.4" stroke-opacity="0.85"/>
<circle cx="400" cy="88.6" r="2.4" fill="#a78bfa" fill-opacity="0.9"/>
<circle cx="400" cy="177.1" r="7" fill="#0e0a1a" stroke="url(#g)" stroke-width="1.4" stroke-opacity="0.85"/>
<circle cx="400" cy="177.1" r="2.4" fill="#a78bfa" fill-opacity="0.9"/>
<circle cx="400" cy="265.7" r="7" fill="#0e0a1a" stroke="url(#g)" stroke-width="1.4" stroke-opacity="0.85"/>
<circle cx="400" cy="265.7" r="2.4" fill="#a78bfa" fill-opacity="0.9"/>
<circle cx="400" cy="354.3" r="7" fill="#0e0a1a" stroke="url(#g)" stroke-width="1.4" stroke-opacity="0.85"/>
<circle cx="400" cy="354.3" r="2.4" fill="#a78bfa" fill-opacity="0.9"/>
<circle cx="400" cy="442.9" r="7" fill="#0e0a1a" stroke="url(#g)" stroke-width="1.4" stroke-opacity="0.85"/>
<circle cx="400" cy="442.9" r="2.4" fill="#a78bfa" fill-opacity="0.9"/>
<circle cx="400" cy="531.4" r="7" fill="#0e0a1a" stroke="url(#g)" stroke-width="1.4" stroke-opacity="0.85"/>
<circle cx="400" cy="531.4" r="2.4" fill="#a78bfa" fill-opacity="0.9"/>
<circle cx="470" cy="155.0" r="7" fill="#0e0a1a" stroke="url(#g)" stroke-width="1.4" stroke-opacity="0.85"/>
<circle cx="470" cy="155.0" r="2.4" fill="#a78bfa" fill-opacity="0.9"/>
<circle cx="470" cy="310.0" r="7" fill="#0e0a1a" stroke="url(#g)" stroke-width="1.4" stroke-opacity="0.85"/>
<circle cx="470" cy="310.0" r="2.4" fill="#a78bfa" fill-opacity="0.9"/>
<circle cx="470" cy="465.0" r="7" fill="#0e0a1a" stroke="url(#g)" stroke-width="1.4" stroke-opacity="0.85"/>
<circle cx="470" cy="465.0" r="2.4" fill="#a78bfa" fill-opacity="0.9"/>
</g>
</svg>